<svg height="496pt" viewBox="-144 0 496 496" width="496pt" xmlns="http://www.w3.org/2000/svg" xmlns:xlink="http://www.w3.org/1999/xlink"><linearGradient id="a" gradientUnits="userSpaceOnUse" x1="104" x2="104" y1="496" y2="0"><stop offset="0" stop-color="#9f2fff"/><stop offset="1" stop-color="#0bb1d3"/></linearGradient><path d="m24 200c0 28.617188 15.664062 55.03125 40 69.167969v38.832031l16 12v152c0 13.230469 10.769531 24 24 24s24-10.769531 24-24h32v-32h-16v16h-16v-48h16v16h16v-32h-32v-72l16-12v-38.832031c24.335938-14.136719 40-40.550781 40-69.167969 0-8.769531-1.472656-17.191406-4.089844-25.097656 18.089844-19.308594 28.089844-44.238282 28.089844-70.902344 0-57.34375-46.65625-104-104-104s-104 46.65625-104 104c0 27.398438 10.726562 52.28125 28.105469 70.871094-2.625 7.914062-4.105469 16.34375-4.105469 25.128906zm16 0c0-4.511719.480469-8.910156 1.375-13.167969 4.65625 3.527344 9.59375 6.703125 14.816406 9.425781-.09375 1.238282-.191406 2.476563-.191406 3.742188 0 22.527344 15.617188 41.425781 36.574219 46.566406l-15.160157 11.378906c-22.484374-10.359374-37.414062-33.035156-37.414062-57.945312zm64 8c10.886719 0 21.496094-1.671875 31.6875-4.945312-1.558594 16.203124-15.085938 28.945312-31.6875 28.945312-16.617188 0-30.144531-12.769531-31.695312-28.976562 10 3.207031 20.640624 4.976562 31.695312 4.976562zm-29.144531-21.0625c5.015625-11.136719 16.160156-18.9375 29.144531-18.9375 13 0 24.160156 7.816406 29.160156 18.96875-9.328125 3.289062-19.089844 5.03125-29.160156 5.03125-10.222656 0-20.007812-1.839844-29.144531-5.0625zm37.144531 285.0625c0 4.40625-3.585938 8-8 8s-8-3.59375-8-8v-140l8 6 8-6zm16-172-24 18-24-18v-24l24-18 24 18zm2.585938-42.054688-15.160157-11.378906c20.957031-5.140625 36.574219-24.039062 36.574219-46.566406 0-26.472656-21.527344-48-48-48-19.433594 0-36.167969 11.625-43.710938 28.273438-4.703124-2.707032-9.144531-5.816407-13.25-9.3125 10.609376-20.722657 32.128907-34.960938 56.960938-34.960938 35.289062 0 64 28.710938 64 64 0 24.910156-14.929688 47.585938-37.414062 57.945312zm-114.585938-153.945312c0-48.519531 39.480469-88 88-88s88 39.480469 88 88c0 20.328125-6.871094 39.480469-19.414062 55.03125-13.992188-23.328125-39.457032-39.03125-68.585938-39.03125-29.121094 0-54.585938 15.6875-68.574219 39.015625-12.121093-15.085937-19.425781-34.199219-19.425781-55.015625zm80 176h16v16h-16zm0 0" fill="url(#a)"/></svg>